# xmcd CD database file
#
# Track frame offsets:
#	150
#	39500
#	63918
#	85489
#	115234
#	149111
#	173759
#	198509
#	223525
#	242542
#
# Disc length: 3518 seconds
#
# Revision: 0
# Processed by: cddbd v1.5.2PL0 Copyright (c) Steve Scherf et al.
# Submitted via: CDex 1.70beta2
#
DISCID=910dbc0a
DTITLE=Yuji Ohno and Lupintic Five With Friends - Sweet Lost Night
DYEAR=2008
DGENRE=Jazz
TTITLE0=Move on Up
TTITLE1=Nocturne
TTITLE2=Theme from Lupin the Third (08' Hard and Beat Ver)
TTITLE3=Boogaloo to Lupin
TTITLE4=Sweet Lost Night
TTITLE5=Samba a Go Go
TTITLE6=Why Not
TTITLE7=Tender Moment
TTITLE8=Jamming
TTITLE9=NOCTURNE (Feat. Tomoyo Harada)
EXTD=YEAR: 2008
EXTT0=
EXTT1=
EXTT2=
EXTT3=
EXTT4=
EXTT5=
EXTT6=
EXTT7=
EXTT8=
EXTT9=
PLAYORDER=
